# xmcd CD database file
#
# Track frame offsets:
#	150
#	4892
#	16812
#	26547
#	38490
#	52430
#	63350
#	74240
#	90852
#	100365
#	111435
#	121797
#	132325
#
# Disc length: 2003 seconds
#
# Revision: 0
# Processed by: cddbd v1.5.2PL0 Copyright (c) Steve Scherf et al.
# Submitted via: CDex 1.79
#
DISCID=af07d10d
DTITLE=David Price - A Texas Songwriter
DYEAR=1992
DGENRE=Country
TTITLE0=Introduction - Deep In The Heart Of Texas
TTITLE1=Texas Sound
TTITLE2=Hill Country Heaven
TTITLE3=Big Time Bertha
TTITLE4=White Lace And Levis
TTITLE5=Last Of The Cowboys
TTITLE6=Too Many Ex`s In Texas
TTITLE7=Rodeo Fever
TTITLE8=Cab-Over Pete
TTITLE9=You Didn`t Have A Heart (So I Bought You One)
TTITLE10=I Love Texas, More Than You
TTITLE11=Take Me Back To Texas
TTITLE12=For Texas (Remember The Alamo)
EXTD=YEAR: 1992
EXTT0=
EXTT1=
EXTT2=
EXTT3=
EXTT4=
EXTT5=
EXTT6=
EXTT7=
EXTT8=
EXTT9=
EXTT10=
EXTT11=
EXTT12=
PLAYORDER=
